<svg xmlns="http://www.w3.org/2000/svg" xmlns:xlink="http://www.w3.org/1999/xlink" width="2000" zoomAndPan="magnify" viewBox="0 0 1500 1499.999933" height="2000" preserveAspectRatio="xMidYMid meet" version="1.0"><defs><clipPath id="5d64ff094e"><path d="M 450 409.363281 L 1050 409.363281 L 1050 969.613281 L 450 969.613281 Z M 450 409.363281 " clip-rule="nonzero"/></clipPath><clipPath id="36604c8e81"><path d="M 751.914062 412.339844 L 1049.664062 412.339844 L 1049.664062 969.589844 L 751.914062 969.589844 Z M 751.914062 412.339844 " clip-rule="nonzero"/></clipPath></defs><g clip-path="url(#5d64ff094e)"><path fill="#000000" d="M 599.699219 843.125 C 598.226562 848.679688 600.007812 843.503906 597.058594 852.3125 C 583.871094 892.007812 578.628906 905.71875 545.460938 932.695312 C 531.6875 943.90625 518.738281 956.453125 510.207031 969.683594 L 450.144531 911.582031 C 465.011719 888.339844 465.734375 858.414062 466.453125 828.730469 C 467.378906 791.332031 468.269531 754.378906 500.507812 738.542969 C 520.140625 730.113281 543.269531 716.777344 562.832031 706.800781 L 562.832031 741.457031 C 548.441406 749.785156 533.710938 757.980469 519.523438 766.515625 C 516.679688 768.160156 514.96875 771.417969 515.414062 774.878906 C 517.296875 789.171875 520.828125 801.03125 525.484375 809.570312 C 534.292969 825.78125 552.109375 833.804688 566.464844 818.34375 L 577.703125 807.101562 L 616.351562 768.332031 C 618.339844 766.480469 621.527344 764.5625 624.195312 763.839844 C 636.496094 760.585938 645.613281 779.265625 645.371094 789.585938 C 645.300781 793.046875 644.652344 793.765625 643.316406 796.167969 C 623.269531 832.261719 605.421875 821.839844 599.699219 843.125 Z M 696.179688 767.988281 C 696.179688 744.300781 715.503906 724.933594 739.179688 724.933594 L 741.476562 724.933594 L 741.476562 687.09375 L 695.152344 687.09375 C 690.496094 687.09375 686.726562 683.289062 686.726562 678.625 L 686.726562 667.863281 C 686.726562 644.964844 658.765625 632.832031 642.183594 649.421875 C 637.457031 654.152344 634.507812 660.699219 634.507812 667.863281 L 634.507812 678.625 C 634.507812 683.289062 630.742188 687.09375 626.046875 687.09375 L 579.726562 687.09375 L 579.726562 781.152344 L 605.25 755.648438 C 624.847656 738.542969 645.953125 747.285156 656.402344 766.925781 C 660.550781 774.742188 663.085938 785.195312 661.75 793.867188 C 660.652344 801.171875 656.953125 806.757812 652.636719 813.304688 C 648.007812 820.332031 641.910156 827.597656 635.230469 832.742188 L 628.445312 837.4375 L 619.46875 843.023438 C 617.6875 844.429688 616.453125 846.039062 615.835938 848.542969 C 617.652344 848.78125 619.535156 848.886719 621.488281 848.886719 L 741.476562 848.886719 L 741.476562 811.042969 L 739.183594 811.042969 C 715.507812 811.042969 696.179688 791.675781 696.179688 767.988281 Z M 998.890625 738.304688 L 937.082031 706.800781 L 937.082031 741.457031 C 950.75 749.375 966.546875 759.589844 980.355469 766.480469 C 983.199219 768.125 984.945312 771.382812 984.464844 774.878906 C 982.101562 793.046875 975.832031 815.257812 962.023438 823.449219 C 951.472656 829.757812 941.84375 825.851562 933.414062 818.34375 C 928.3125 813.339844 883.324219 767.679688 882.332031 767.335938 C 881.578125 767.097656 870.375 756.230469 860.027344 772.136719 C 856.738281 777.210938 853.824219 785.09375 854.613281 790.957031 C 855.023438 794.210938 855.570312 794.347656 856.597656 796.167969 C 874.3125 827.769531 888.769531 823.28125 896.960938 835.585938 C 899.804688 839.835938 900.144531 844.222656 901.6875 848.851562 C 915.324219 889.984375 919.847656 904.554688 954.417969 932.695312 C 968.191406 943.902344 981.175781 956.449219 989.671875 969.683594 L 1049.734375 911.582031 C 1015.097656 857.386719 1057.101562 767.953125 998.890625 738.304688 Z M 636.085938 605.957031 L 684.839844 557.179688 C 688.164062 553.886719 688.164062 548.539062 684.839844 545.214844 C 681.550781 541.925781 676.207031 541.925781 672.882812 545.214844 L 624.128906 593.992188 C 620.839844 597.316406 620.839844 602.664062 624.128906 605.957031 C 627.417969 609.28125 632.796875 609.28125 636.085938 605.957031 Z M 770.804688 496.300781 L 749.941406 431.617188 L 729.074219 496.300781 L 661.132812 496.164062 L 716.191406 535.992188 L 695.050781 600.609375 L 749.941406 560.539062 L 804.828125 600.609375 L 783.722656 535.992188 L 838.746094 496.164062 Z M 741.511719 602.289062 L 741.511719 637.011719 C 741.511719 641.671875 745.28125 645.445312 749.941406 645.445312 C 754.597656 645.445312 758.367188 641.671875 758.367188 637.011719 L 758.367188 602.289062 C 758.367188 597.625 754.597656 593.855469 749.941406 593.855469 C 745.28125 593.855469 741.511719 597.625 741.511719 602.289062 Z M 650.167969 411.90625 C 646.878906 415.195312 646.878906 420.578125 650.167969 423.871094 L 698.921875 472.648438 C 702.210938 475.9375 707.589844 475.9375 710.878906 472.648438 C 714.203125 469.355469 714.203125 463.972656 710.878906 460.683594 L 662.125 411.90625 C 658.835938 408.582031 653.457031 408.582031 650.167969 411.90625 Z M 916.625 495.304688 C 916.625 490.675781 912.859375 486.871094 908.199219 486.871094 L 873.492188 486.871094 C 868.832031 486.871094 865.0625 490.675781 865.0625 495.304688 C 865.0625 499.964844 868.832031 503.738281 873.492188 503.738281 L 908.199219 503.738281 C 912.855469 503.738281 916.625 499.96875 916.625 495.304688 Z M 591.679688 503.738281 L 626.390625 503.738281 C 631.050781 503.738281 634.816406 499.964844 634.816406 495.304688 C 634.816406 490.675781 631.050781 486.871094 626.390625 486.871094 L 591.679688 486.871094 C 587.023438 486.871094 583.253906 490.675781 583.253906 495.304688 C 583.253906 499.96875 587.023438 503.738281 591.679688 503.738281 Z M 863.792969 605.957031 C 867.082031 609.28125 872.460938 609.28125 875.75 605.957031 C 879.074219 602.664062 879.074219 597.316406 875.75 593.992188 L 826.996094 545.214844 C 823.707031 541.925781 818.328125 541.925781 815.039062 545.214844 C 811.75 548.539062 811.75 553.886719 815.039062 557.179688 Z M 837.753906 411.90625 L 789 460.683594 C 785.710938 463.972656 785.710938 469.355469 789 472.648438 C 792.289062 475.9375 797.667969 475.9375 800.957031 472.648438 L 849.710938 423.871094 C 853.035156 420.578125 853.035156 415.195312 849.710938 411.90625 C 846.421875 408.582031 841.078125 408.582031 837.753906 411.90625 Z M 879.519531 842.339844 L 870.0625 836.578125 L 861.875 830.410156 C 854.234375 823.792969 847.65625 814.710938 842.617188 805.730469 C 840.390625 801.753906 838.917969 799.253906 838.234375 794.554688 C 836.519531 782.078125 840.769531 768.8125 848.75 759.042969 C 853.960938 752.769531 860.675781 748.074219 868.863281 746.839844 L 875.886719 746.667969 C 880.613281 747.046875 886.371094 749.71875 889.695312 751.878906 L 895.3125 756.234375 L 920.152344 781.152344 L 920.152344 687.09375 L 882.292969 687.09375 L 882.292969 689.390625 C 882.292969 713.074219 862.96875 732.40625 839.261719 732.40625 C 815.585938 732.40625 796.261719 713.074219 796.261719 689.390625 L 796.261719 687.09375 L 758.402344 687.09375 L 758.402344 733.402344 C 758.402344 738.097656 754.632812 741.867188 749.9375 741.867188 L 739.179688 741.867188 C 724.859375 741.867188 713.070312 753.660156 713.070312 767.988281 C 713.070312 782.351562 724.859375 794.109375 739.179688 794.109375 L 749.941406 794.109375 C 754.632812 794.109375 758.402344 797.878906 758.402344 802.574219 L 758.402344 848.882812 L 878.386719 848.882812 C 880.375 848.882812 882.226562 848.78125 884.042969 848.542969 C 883.355469 845.699219 881.816406 843.949219 879.519531 842.339844 Z M 879.519531 842.339844 " fill-opacity="1" fill-rule="nonzero"/></g><g clip-path="url(#36604c8e81)"><path fill="#00bf63" d="M 599.699219 842.925781 C 598.226562 848.476562 600.007812 843.304688 597.058594 852.109375 C 583.871094 891.785156 578.628906 905.492188 545.460938 932.457031 C 531.6875 943.660156 518.738281 956.199219 510.207031 969.425781 L 450.144531 911.347656 C 465.011719 888.121094 465.734375 858.207031 466.453125 828.539062 C 467.378906 791.15625 468.269531 754.222656 500.507812 738.390625 C 520.140625 729.964844 543.269531 716.636719 562.832031 706.664062 L 562.832031 741.304688 C 548.441406 749.628906 533.710938 757.820312 519.523438 766.351562 C 516.679688 767.996094 514.96875 771.25 515.414062 774.710938 C 517.296875 788.996094 520.828125 800.851562 525.484375 809.382812 C 534.292969 825.589844 552.109375 833.609375 566.464844 818.15625 L 577.703125 806.917969 L 616.351562 768.167969 C 618.339844 766.316406 621.527344 764.398438 624.195312 763.679688 C 636.496094 760.421875 645.613281 779.097656 645.371094 789.410156 C 645.300781 792.871094 644.652344 793.589844 643.316406 795.988281 C 623.269531 832.066406 605.421875 821.648438 599.699219 842.925781 Z M 696.179688 767.824219 C 696.179688 744.148438 715.503906 724.789062 739.179688 724.789062 L 741.476562 724.789062 L 741.476562 686.964844 L 695.152344 686.964844 C 690.496094 686.964844 686.726562 683.160156 686.726562 678.503906 L 686.726562 667.742188 C 686.726562 644.855469 658.765625 632.726562 642.183594 649.3125 C 637.457031 654.039062 634.507812 660.582031 634.507812 667.742188 L 634.507812 678.503906 C 634.507812 683.160156 630.742188 686.964844 626.046875 686.964844 L 579.726562 686.964844 L 579.726562 780.980469 L 605.25 755.488281 C 624.847656 738.390625 645.953125 747.128906 656.402344 766.761719 C 660.550781 774.574219 663.085938 785.023438 661.75 793.691406 C 660.652344 800.988281 656.953125 806.574219 652.636719 813.121094 C 648.007812 820.144531 641.910156 827.40625 635.230469 832.546875 L 628.445312 837.238281 L 619.46875 842.824219 C 617.6875 844.230469 616.453125 845.839844 615.835938 848.339844 C 617.652344 848.582031 619.535156 848.683594 621.488281 848.683594 L 741.476562 848.683594 L 741.476562 810.859375 L 739.183594 810.859375 C 715.507812 810.859375 696.179688 791.5 696.179688 767.824219 Z M 998.890625 738.152344 L 937.082031 706.664062 L 937.082031 741.304688 C 950.75 749.21875 966.546875 759.429688 980.355469 766.316406 C 983.199219 767.960938 984.945312 771.214844 984.464844 774.710938 C 982.101562 792.867188 975.832031 815.070312 962.023438 823.261719 C 951.472656 829.566406 941.84375 825.660156 933.414062 818.15625 C 928.3125 813.152344 883.324219 767.515625 882.332031 767.171875 C 881.578125 766.933594 870.375 756.070312 860.027344 771.96875 C 856.738281 777.039062 853.824219 784.921875 854.613281 790.78125 C 855.023438 794.035156 855.570312 794.171875 856.597656 795.988281 C 874.3125 827.578125 888.769531 823.089844 896.960938 835.390625 C 899.804688 839.636719 900.144531 844.023438 901.6875 848.648438 C 915.324219 889.765625 919.847656 904.324219 954.417969 932.453125 C 968.191406 943.65625 981.179688 956.199219 989.671875 969.425781 L 1049.734375 911.347656 C 1015.097656 857.179688 1057.101562 767.789062 998.890625 738.152344 Z M 636.085938 605.867188 L 684.839844 557.109375 C 688.164062 553.820312 688.164062 548.476562 684.839844 545.152344 C 681.550781 541.863281 676.207031 541.863281 672.882812 545.152344 L 624.128906 593.90625 C 620.839844 597.230469 620.839844 602.578125 624.128906 605.867188 C 627.417969 609.1875 632.796875 609.1875 636.085938 605.867188 Z M 770.804688 496.257812 L 749.941406 431.605469 L 729.074219 496.261719 L 661.132812 496.125 L 716.191406 535.9375 L 695.050781 600.519531 L 749.941406 560.46875 L 804.828125 600.519531 L 783.722656 535.9375 L 838.746094 496.125 Z M 741.511719 602.199219 L 741.511719 636.90625 C 741.511719 641.566406 745.28125 645.335938 749.941406 645.335938 C 754.597656 645.335938 758.367188 641.566406 758.367188 636.90625 L 758.367188 602.199219 C 758.367188 597.539062 754.597656 593.769531 749.941406 593.769531 C 745.28125 593.769531 741.511719 597.539062 741.511719 602.199219 Z M 650.167969 411.90625 C 646.878906 415.195312 646.878906 420.574219 650.167969 423.863281 L 698.921875 472.617188 C 702.210938 475.90625 707.589844 475.90625 710.878906 472.617188 C 714.203125 469.328125 714.203125 463.949219 710.878906 460.660156 L 662.125 411.90625 C 658.835938 408.582031 653.457031 408.582031 650.167969 411.90625 Z M 916.628906 495.265625 C 916.628906 490.640625 912.859375 486.835938 908.199219 486.835938 L 873.492188 486.835938 C 868.832031 486.835938 865.0625 490.640625 865.0625 495.265625 C 865.0625 499.925781 868.832031 503.695312 873.492188 503.695312 L 908.199219 503.695312 C 912.855469 503.695312 916.628906 499.925781 916.628906 495.265625 Z M 591.679688 503.695312 L 626.390625 503.695312 C 631.050781 503.695312 634.816406 499.925781 634.816406 495.265625 C 634.816406 490.640625 631.050781 486.835938 626.390625 486.835938 L 591.683594 486.835938 C 587.023438 486.835938 583.253906 490.640625 583.253906 495.265625 C 583.253906 499.925781 587.023438 503.695312 591.679688 503.695312 Z M 863.792969 605.867188 C 867.082031 609.1875 872.460938 609.1875 875.75 605.867188 C 879.074219 602.578125 879.074219 597.230469 875.75 593.90625 L 826.996094 545.152344 C 823.707031 541.863281 818.328125 541.863281 815.039062 545.152344 C 811.75 548.476562 811.75 553.820312 815.039062 557.109375 Z M 837.753906 411.90625 L 789 460.660156 C 785.710938 463.949219 785.710938 469.328125 789 472.617188 C 792.289062 475.90625 797.667969 475.90625 800.957031 472.617188 L 849.710938 423.863281 C 853.035156 420.574219 853.035156 415.195312 849.710938 411.90625 C 846.421875 408.582031 841.078125 408.582031 837.753906 411.90625 Z M 879.519531 842.140625 L 870.0625 836.382812 L 861.875 830.214844 C 854.234375 823.605469 847.65625 814.523438 842.617188 805.546875 C 840.390625 801.574219 838.917969 799.074219 838.234375 794.378906 C 836.519531 781.90625 840.769531 768.648438 848.75 758.882812 C 853.960938 752.613281 860.675781 747.917969 868.863281 746.683594 L 875.886719 746.515625 C 880.613281 746.890625 886.371094 749.5625 889.695312 751.722656 L 895.3125 756.074219 L 920.152344 780.980469 L 920.152344 686.964844 L 882.292969 686.964844 L 882.292969 689.261719 C 882.292969 712.933594 862.96875 732.257812 839.261719 732.257812 C 815.585938 732.257812 796.261719 712.933594 796.261719 689.261719 L 796.261719 686.964844 L 758.402344 686.964844 L 758.402344 733.253906 C 758.402344 737.949219 754.632812 741.714844 749.9375 741.714844 L 739.179688 741.714844 C 724.859375 741.714844 713.070312 753.5 713.070312 767.824219 C 713.070312 782.179688 724.859375 793.929688 739.179688 793.929688 L 749.941406 793.929688 C 754.632812 793.929688 758.402344 797.699219 758.402344 802.394531 L 758.402344 848.683594 L 878.386719 848.683594 C 880.375 848.683594 882.226562 848.578125 884.042969 848.339844 C 883.359375 845.496094 881.816406 843.75 879.519531 842.140625 Z M 879.519531 842.140625 " fill-opacity="1" fill-rule="nonzero"/></g></svg>